<?xml version="1.0" encoding="UTF-8" standalone="no"?>
<!DOCTYPE svg PUBLIC "-//W3C//DTD SVG 1.1//EN" "http://www.w3.org/Graphics/SVG/1.1/DTD/svg11.dtd">
<svg width="100%" height="100%" viewBox="0 0 512 512" version="1.1" xmlns="http://www.w3.org/2000/svg" xmlns:xlink="http://www.w3.org/1999/xlink" xml:space="preserve" xmlns:serif="http://www.serif.com/" style="fill-rule:evenodd;clip-rule:evenodd;stroke-linecap:round;stroke-linejoin:round;stroke-miterlimit:1.5;">
    <g transform="matrix(13.9145,13.9145,-13.3206,13.3206,663.758,-11276.9)">
        <path d="M399.766,434.625C404.608,434.625 406.509,437.718 408.897,440.909C410.195,442.644 412.762,443.718 412.762,450.044C412.762,455.819 406.939,460.617 399.766,460.617C392.593,460.617 386.77,455.436 386.77,450.044C386.77,443.882 388.966,443.571 390.491,441.62C393.307,438.019 394.844,434.625 399.766,434.625Z" style="fill:rgb(215,189,86);"/>
    </g>
    <g transform="matrix(0.853333,0,0,0.853333,0,0)">
        <g transform="matrix(8.11965,8.11965,-8.11965,8.11965,-1812.47,-8588.93)">
            <circle cx="685.614" cy="432.579" r="1.507" style="fill:rgb(188,158,38);"/>
        </g>
        <g transform="matrix(8.11965,8.11965,-8.11965,8.11965,-1710.48,-8580.51)">
            <circle cx="685.614" cy="432.579" r="1.507" style="fill:rgb(188,158,38);"/>
        </g>
        <g transform="matrix(8.11965,8.11965,-8.11965,8.11965,-1738.62,-8687.26)">
            <circle cx="685.614" cy="432.579" r="1.507" style="fill:rgb(188,158,38);"/>
        </g>
        <g transform="matrix(8.11965,8.11965,-8.11965,8.11965,-1596.98,-8645.07)">
            <circle cx="685.614" cy="432.579" r="1.507" style="fill:rgb(188,158,38);"/>
        </g>
        <g transform="matrix(8.11965,8.11965,-8.11965,8.11965,-1941.47,-8890.11)">
            <circle cx="685.614" cy="432.579" r="1.507" style="fill:rgb(188,158,38);"/>
        </g>
        <g transform="matrix(8.11965,8.11965,-8.11965,8.11965,-1853.16,-8553.68)">
            <path d="M673.092,391.375C676.325,393.359 679.505,393.658 682.6,391.243" style="fill:none;stroke:rgb(188,158,38);stroke-width:1.55px;"/>
        </g>
    </g>
</svg>
