<svg clip-rule="evenodd" fill-rule="evenodd" stroke-linecap="round" stroke-linejoin="round" stroke-miterlimit="1.5" viewBox="0 0 600 600" xmlns="http://www.w3.org/2000/svg" xmlns:xlink="http://www.w3.org/1999/xlink"><clipPath id="a"><circle clip-rule="evenodd" cx="399.766" cy="447.621" r="12.996"/></clipPath><g transform="matrix(16.3227 16.3227 -16.3227 16.3227 1081.11 -13531.6)"><circle cx="399.766" cy="447.621" fill="#a2ca1e" r="12.996"/><g clip-path="url(#a)" fill="none" stroke="#436000" stroke-width="15.51"><path d="m975.491 304.09s5.513 11.193 9.62 19.531c2.762 5.607 2.762 12.179 0 17.786-1.669 3.389-3.57 7.25-5.24 10.638-2.761 5.607-2.761 12.179 0 17.786 1.67 3.389 3.571 7.25 5.24 10.638 2.762 5.607 2.762 12.179 0 17.786-1.669 3.389-3.57 7.25-5.24 10.638-2.761 5.607-2.761 12.179 0 17.786 1.67 3.389 3.571 7.25 5.24 10.638 2.762 5.607 2.762 12.179 0 17.786-4.107 8.338-9.62 19.531-9.62 19.531" transform="matrix(.198604 -0 -0 -.198604 211.644 523.86)"/><path d="m975.491 304.09s5.513 11.193 9.62 19.531c2.762 5.607 2.762 12.179 0 17.786-1.669 3.389-3.57 7.25-5.24 10.638-2.761 5.607-2.761 12.179 0 17.786 1.67 3.389 3.571 7.25 5.24 10.638 2.762 5.607 2.762 12.179 0 17.786-1.669 3.389-3.57 7.25-5.24 10.638-2.761 5.607-2.761 12.179 0 17.786 1.67 3.389 3.571 7.25 5.24 10.638 2.762 5.607 2.762 12.179 0 17.786-4.107 8.338-9.62 19.531-9.62 19.531" transform="matrix(.198604 -0 0 .198604 204.775 374.231)"/><path d="m975.491 304.09s5.513 11.193 9.62 19.531c2.762 5.607 2.762 12.179 0 17.786-1.669 3.389-3.57 7.25-5.24 10.638-2.761 5.607-2.761 12.179 0 17.786 1.67 3.389 3.571 7.25 5.24 10.638 2.762 5.607 2.762 12.179 0 17.786-1.669 3.389-3.57 7.25-5.24 10.638-2.761 5.607-2.761 12.179 0 17.786 1.67 3.389 3.571 7.25 5.24 10.638 2.762 5.607 2.762 12.179 0 17.786-4.107 8.338-9.62 19.531-9.62 19.531" transform="matrix(.198604 -0 0 .198604 197.684 371.187)"/></g></g></svg>