<svg clip-rule="evenodd" fill-rule="evenodd" stroke-linecap="round" stroke-linejoin="round" stroke-miterlimit="1.5" viewBox="0 0 600 600" xmlns="http://www.w3.org/2000/svg"><path d="m399.574 435.273c2.405 0 4.03-.296 6.135.789 4.187 2.159 7.053 6.527 7.053 11.559 0 5.993-4.065 11.043-9.585 12.543-1.087.295-2.231-.235-3.411-.235-1.216 0-2.393.521-3.51.208-5.47-1.534-9.486-6.56-9.486-12.516 0-4.967 2.731-9.407 6.892-11.474 2.015-1.002 3.433-.874 5.912-.874z" fill="#f72825" transform="matrix(16.1218715448 16.1218715448 -16.3089753628 16.3089753628 1155.2419421 -13444.5699969)"/><path d="m596.889 409.736s-.472 1.861 1.606 3.989c2.078 2.129 4.505 2.08 4.505 2.08" fill="none" stroke="#b80300" stroke-width="1.16" transform="matrix(17.4031552379 -.1004043095 -.1004043095 17.4031552379 -9950.35528042 -6982.36736238)"/></svg>