<svg clip-rule="evenodd" fill-rule="evenodd" stroke-linejoin="round" stroke-miterlimit="2" viewBox="0 0 600 600" xmlns="http://www.w3.org/2000/svg"><circle cx="299.98511346445" cy="300.01977868184" fill="#6577ff" r="299.99599932554" stroke-width="23.0837180152"/><path d="m917.565 318.723c1.619-3.96 5.472-6.548 9.751-6.548 4.278 0 8.132 2.588 9.751 6.548l3.864 9.451c.128.313.34.583.613.782.273.198.596.317.933.342l10.183.754c4.266.316 7.918 3.181 9.24 7.25s.052 8.534-3.214 11.297l-7.795 6.596c-.257.218-.449.503-.553.825-.105.321-.117.664-.037.992l2.429 9.918c1.018 4.155-.578 8.514-4.04 11.029-3.461 2.514-8.1 2.686-11.737.434l-8.682-5.375c-.287-.178-.618-.272-.955-.272-.338 0-.669.094-.956.272l-8.681 5.375c-3.638 2.252-8.276 2.08-11.737-.434-3.462-2.515-5.058-6.874-4.04-11.029l2.429-9.918c.08-.328.068-.671-.037-.992-.104-.322-.296-.607-.554-.825l-7.794-6.596c-3.266-2.763-4.537-7.228-3.215-11.297 1.323-4.069 4.974-6.934 9.241-7.25l10.183-.754c.337-.025.66-.144.933-.342.273-.199.485-.469.613-.782z" fill="#1f31ba" transform="matrix(2.94399483526 -1.80762157666 1.80762157666 2.94399483526 -2965.287332742 873.35516052)"/></svg>