<svg clip-rule="evenodd" fill-rule="evenodd" stroke-linecap="round" stroke-linejoin="round" stroke-miterlimit="1.5" viewBox="0 0 600 600" xmlns="http://www.w3.org/2000/svg" xmlns:xlink="http://www.w3.org/1999/xlink"><clipPath id="a"><path clip-rule="evenodd" d="m399.472 433.204c3.181-.027 2.721 2.17 3.407 2.283 6.172 1.008 9.883 5.679 9.883 12.134 0 7.173-5.823 12.996-12.996 12.996s-12.996-5.823-12.996-12.996c0-6.211 3.461-10.77 9.289-12.053.902-.199.12-2.335 3.413-2.364z"/></clipPath><g transform="matrix(16.1603 16.1603 -16.1624 16.1624 1072.77 -13393.6)"><path d="m399.472 433.204c3.181-.027 2.721 2.17 3.407 2.283 6.172 1.008 9.883 5.679 9.883 12.134 0 7.173-5.823 12.996-12.996 12.996s-12.996-5.823-12.996-12.996c0-6.211 3.461-10.77 9.289-12.053.902-.199.12-2.335 3.413-2.364z" fill="#f7255e"/><g clip-path="url(#a)" fill="none" stroke="#bb0a4b" stroke-width="1.09"><path d="m592.121 383.701s3.104 2.224 4.683 3.355c.538.386 1.262.386 1.801 0 1.04-.745 2.742-1.965 3.783-2.71.538-.385 1.262-.385 1.8 0 1.041.745 2.743 1.965 3.784 2.71.538.386 1.262.386 1.8 0 1.041-.745 2.743-1.965 3.783-2.71.539-.385 1.263-.385 1.801 0 1.041.745 2.743 1.965 3.783 2.71.538.386 1.263.386 1.801 0 1.579-1.131 4.683-3.355 4.683-3.355" transform="matrix(.863306 -0 0 .863306 -125.443 107.05)"/><path d="m592.121 383.701s3.104 2.224 4.683 3.355c.538.386 1.262.386 1.801 0 1.04-.745 2.742-1.965 3.783-2.71.538-.385 1.262-.385 1.8 0 1.041.745 2.743 1.965 3.784 2.71.538.386 1.262.386 1.8 0 1.041-.745 2.743-1.965 3.783-2.71.539-.385 1.263-.385 1.801 0 1.041.745 2.743 1.965 3.783 2.71.538.386 1.263.386 1.801 0 1.579-1.131 4.683-3.355 4.683-3.355" transform="matrix(.863306 -0 0 .863306 -125.443 115.538)"/><path d="m592.121 383.701s3.104 2.224 4.683 3.355c.538.386 1.262.386 1.801 0 1.04-.745 2.742-1.965 3.783-2.71.538-.385 1.262-.385 1.8 0 1.041.745 2.743 1.965 3.784 2.71.538.386 1.262.386 1.8 0 1.041-.745 2.743-1.965 3.783-2.71.539-.385 1.263-.385 1.801 0 1.041.745 2.743 1.965 3.783 2.71.538.386 1.263.386 1.801 0 1.579-1.131 4.683-3.355 4.683-3.355" transform="matrix(.863306 -0 0 .863306 -125.443 123.863)"/></g></g></svg>