<svg clip-rule="evenodd" fill-rule="evenodd" stroke-linejoin="round" stroke-miterlimit="2" viewBox="0 0 600 600" xmlns="http://www.w3.org/2000/svg"><circle cx="399.766" cy="447.621" fill="#b2e570" r="12.996" transform="matrix(23.083719999 0 0 23.0836819992 -8928.1414264 -10032.7559488)"/><g fill="#83b73e"><circle cx="897.387" cy="427.009" r="2.166" transform="matrix(5.7279329796 0 0 5.72791588 -4897.746908 -1919.8484472)"/><circle cx="897.387" cy="427.009" r="2.166" transform="matrix(5.7279329796 0 0 5.72791588 -4828.4582252 -1907.1782512)"/><circle cx="897.387" cy="427.009" r="2.166" transform="matrix(5.7279329796 0 0 5.72791588 -4774.5898724 -1935.9741512)"/><circle cx="897.387" cy="427.009" r="2.166" transform="matrix(5.7279329796 0 0 5.72791588 -4699.8869404 -1943.9382744)"/><circle cx="897.387" cy="427.009" r="2.166" transform="matrix(5.7279329796 0 0 5.72791588 -4733.6745968 -1981.0932128)"/><circle cx="897.387" cy="427.009" r="2.166" transform="matrix(5.7279329796 0 0 5.72791588 -4808.651668 -1980.2704728)"/><circle cx="897.387" cy="427.009" r="2.166" transform="matrix(5.7279329796 0 0 5.72791588 -4782.4713744 -2021.0125576)"/><circle cx="897.387" cy="427.009" r="2.166" transform="matrix(5.7279329796 0 0 5.72791588 -4690.0179292 -2017.5899592)"/><circle cx="897.387" cy="427.009" r="2.166" transform="matrix(5.7279329796 0 0 5.72791588 -4666.1335514 -2057.9700384)"/><circle cx="897.387" cy="427.009" r="2.166" transform="matrix(5.7279329796 0 0 5.72791588 -4630.975199 -2022.9871336)"/><circle cx="897.387" cy="427.009" r="2.166" transform="matrix(5.7279329796 0 0 5.72791588 -4735.8677104 -2051.6184856)"/><circle cx="897.387" cy="427.009" r="2.166" transform="matrix(5.7279329796 0 0 5.72791588 -4696.0489916 -2109.67102)"/><circle cx="897.387" cy="427.009" r="2.166" transform="matrix(5.7279329796 0 0 5.72791588 -4626.3833674 -2103.4840152)"/><circle cx="897.387" cy="427.009" r="2.166" transform="matrix(5.7279329796 0 0 5.72791588 -5079.4326628 -2109.341924)"/><circle cx="897.387" cy="427.009" r="2.166" transform="matrix(5.7279329796 0 0 5.72791588 -5017.2030644 -2168.8095712)"/><circle cx="897.387" cy="427.009" r="2.166" transform="matrix(5.7279329796 0 0 5.72791588 -5055.548285 -2192.3399352)"/><circle cx="897.387" cy="427.009" r="2.166" transform="matrix(5.7279329796 0 0 5.72791588 -4623.0251622 -2158.7721432)"/><circle cx="897.387" cy="427.009" r="2.166" transform="matrix(5.7279329796 0 0 5.72791588 -4636.7321222 -2214.1919096)"/><circle cx="897.387" cy="427.009" r="2.166" transform="matrix(5.7279329796 0 0 5.72791588 -4627.034448 -2273.067184)"/></g></svg>