<svg clip-rule="evenodd" fill-rule="evenodd" stroke-linejoin="round" stroke-miterlimit="2" viewBox="0 0 600 600" xmlns="http://www.w3.org/2000/svg"><path d="m399.748 431.929c2.311-.092 4.059 3.321 4.648 3.546 4.889 1.867 8.366 6.603 8.366 12.146 0 5.255-3.07 9.914-7.619 11.833-2.895 1.222-3.36 3.293-5.497 3.271-1.875-.019-3.276-2.34-5.149-3.222-4.505-2.123-7.727-6.585-7.727-11.882 0-5.411 3.314-10.055 8.022-12.009.615-.255 2.549-3.588 4.956-3.683z" fill="#ffda2e" transform="matrix(16.182924912 16.182924912 -16.182924912 16.182924912 1073.97086812 -13414.169992)"/><g fill="#aeac1e" stroke-width="27.193766985"><circle cx="325.29956146403" cy="509.87863186192" r="22.13572632579"/><circle cx="352.50683386403" cy="373.89138046192" r="22.13572632579"/><circle cx="515.65224706403" cy="373.89138046192" r="22.13572632579"/><circle cx="434.07954046403" cy="455.51319766192" r="22.13572632579"/></g></svg>