<svg clip-rule="evenodd" fill-rule="evenodd" stroke-linecap="round" stroke-linejoin="round" stroke-miterlimit="1.5" viewBox="0 0 600 600" xmlns="http://www.w3.org/2000/svg"><path d="m399.766 434.625c4.842 0 5.823 2.835 8.059 6.766 1.077 1.892 4.937 2.327 4.937 8.653 0 5.775-5.823 10.573-12.996 10.573s-12.996-5.181-12.996-10.573c0-6.162 3.519-6.714 4.528-8.561 2.205-4.039 3.546-6.858 8.468-6.858z" fill="#dddf64" transform="matrix(16.7516867628 16.7516867628 -16.7516867628 16.7516867628 1125.8482206 -13918.7272184)"/><g fill="#b9ba1e"><circle cx="685.614" cy="432.579" r="1.507" transform="matrix(8.1196498251 8.1196498251 -8.1196498251 8.1196498251 -1812.46935885 -8588.92708637)"/><circle cx="685.614" cy="432.579" r="1.507" transform="matrix(8.1196498251 8.1196498251 -8.1196498251 8.1196498251 -1710.48081417 -8580.50832239)"/><circle cx="685.614" cy="432.579" r="1.507" transform="matrix(8.1196498251 8.1196498251 -8.1196498251 8.1196498251 -1738.62004749 -8687.25623663)"/><circle cx="685.614" cy="432.579" r="1.507" transform="matrix(8.1196498251 8.1196498251 -8.1196498251 8.1196498251 -1596.97847742 -8645.0653601)"/><circle cx="685.614" cy="432.579" r="1.507" transform="matrix(8.1196498251 8.1196498251 -8.1196498251 8.1196498251 -1941.47199888 -8890.10818802)"/></g><path d="m673.092 391.375c3.233 1.984 6.413 2.283 9.508-.132" fill="none" stroke="#b9ba1e" stroke-width="1.55" transform="matrix(8.1196498251 8.1196498251 -8.1196498251 8.1196498251 -1820.58976356 -8597.04749108)"/></svg>