<svg clip-rule="evenodd" fill-rule="evenodd" stroke-linecap="round" stroke-linejoin="round" stroke-miterlimit="1.5" viewBox="0 0 600 600" xmlns="http://www.w3.org/2000/svg" xmlns:xlink="http://www.w3.org/1999/xlink"><clipPath id="a"><circle clip-rule="evenodd" cx="399.766" cy="447.621" r="12.996"/></clipPath><g transform="matrix(23.0837 0 -0 23.0837 -8928.09 -10032.8)"><circle cx="399.766" cy="447.621" fill="#ffc234" r="12.996"/><g clip-path="url(#a)" fill="none" stroke="#e68a31" stroke-width="1.74"><path d="m779.705 358.695 95.068 95.068" transform="matrix(.276706 0 0 .276706 170.864 334.594)"/><path d="m779.705 358.695 95.068 95.068" transform="matrix(.276706 0 0 .276706 175.625 329.834)"/><path d="m779.705 358.695 95.068 95.068" transform="matrix(.276706 0 0 .276706 166.104 339.355)"/><path d="m779.705 358.695 95.068 95.068" transform="matrix(-.276706 0 0 .276706 628.668 334.594)"/><path d="m779.705 358.695 95.068 95.068" transform="matrix(-.276706 0 -0 .276706 623.908 329.834)"/><path d="m779.705 358.695 95.068 95.068" transform="matrix(-.276706 0 -0 .276706 633.428 339.355)"/></g></g></svg>